<svg version="1.1" xmlns="http://www.w3.org/2000/svg" xmlns:xlink="http://www.w3.org/1999/xlink" x="0px" y="0px"
	 viewBox="0 0 283.46 283.46" style="enable-background:new 0 0 283.46 283.46;" xml:space="preserve">
<style type="text/css">
	.st0{fill:none;stroke:#FFFFFF;stroke-width:10;stroke-linecap:round;stroke-linejoin:round;stroke-miterlimit:10;}
	.st1{fill:none;stroke:#FFFFFF;stroke-width:7;stroke-linecap:round;stroke-linejoin:round;stroke-miterlimit:10;}
	.st2{fill:none;stroke:#FFFFFF;stroke-width:4;stroke-linecap:round;stroke-linejoin:round;stroke-miterlimit:10;}
</style>
<g id="category_icon2">
	<g>
		<path class="st0" d="M133.81,98.65c1.32,35.76,25.53,49.83,25.53,49.83c14.46-25.92,26.2-70.91-17.61-123.23
			c-69.11,82.53,0,146.81,0,146.81"/>
		<path class="st0" d="M59.67,162.75c26.22,24.35,53.29,17.18,53.29,17.18c-8.1-28.56-31.61-68.67-99.59-74.69
			c9.49,107.23,103.81,103.81,103.81,103.81"/>
		<path class="st0" d="M223.79,162.75c-26.22,24.35-53.29,17.18-53.29,17.18c8.1-28.56,31.61-68.67,99.59-74.69
			c-9.49,107.23-103.81,103.81-103.81,103.81"/>
		<path class="st0" d="M191.48,240.83c-19.48-0.72-27.14-13.91-27.14-13.91c14.12-7.88,38.63-14.28,67.13,9.59
			c-44.96,37.65-79.98,0-79.98,0"/>
		<path class="st0" d="M91.99,240.83c19.48-0.72,27.14-13.91,27.14-13.91c-14.12-7.88-38.63-14.28-67.13,9.59
			c44.96,37.65,79.98,0,79.98,0"/>
	</g>
</g>
</svg>
