<svg version="1.1" xmlns="http://www.w3.org/2000/svg" xmlns:xlink="http://www.w3.org/1999/xlink" x="0px" y="0px"
	 viewBox="0 0 283.46 283.46" style="enable-background:new 0 0 283.46 283.46;" xml:space="preserve">
<style type="text/css">
	.st0{fill:none;stroke:#FFFFFF;stroke-width:10;stroke-linecap:round;stroke-linejoin:round;stroke-miterlimit:10;}
	.st1{fill:none;stroke:#FFFFFF;stroke-width:7;stroke-linecap:round;stroke-linejoin:round;stroke-miterlimit:10;}
	.st2{fill:none;stroke:#FFFFFF;stroke-width:4;stroke-linecap:round;stroke-linejoin:round;stroke-miterlimit:10;}
</style>
<g id="category_icon4">
	<path class="st0" d="M85.61,28.71l102.14,208.2c0,0-15.56-27.94,7.81-39.63c18.98-9.49,36.28,18.98,36.28,18.98
		s9.19,12.39,1.87,29.05c-2.84,6.47-9.76,10.24-16.76,9.32c-8.73-1.14-20.83-5.15-29.21-17.72"/>
	<path class="st0" d="M197.85,28.71L95.71,236.9c0,0,15.56-27.94-7.81-39.63c-18.98-9.49-36.28,18.98-36.28,18.98
		s-9.19,12.39-1.87,29.05c2.84,6.47,9.76,10.24,16.76,9.32c8.73-1.14,20.83-5.15,29.21-17.72"/>
</g>
</svg>
