<svg version="1.1" xmlns="http://www.w3.org/2000/svg" xmlns:xlink="http://www.w3.org/1999/xlink" x="0px" y="0px"
	 viewBox="0 0 283.46 283.46" style="enable-background:new 0 0 283.46 283.46;" xml:space="preserve">
<style type="text/css">
	.st0{fill:none;stroke:#FFFFFF;stroke-width:10;stroke-linecap:round;stroke-linejoin:round;stroke-miterlimit:10;}
	.st1{fill:none;stroke:#FFFFFF;stroke-width:7;stroke-linecap:round;stroke-linejoin:round;stroke-miterlimit:10;}
	.st2{fill:none;stroke:#FFFFFF;stroke-width:4;stroke-linecap:round;stroke-linejoin:round;stroke-miterlimit:10;}
</style>
<g id="category_icon3">
	<g>
		<path class="st0" d="M142.39,188.88c-92.54-67.33,0-161.07,0-161.07S234.93,121.54,142.39,188.88z"/>
		<path class="st0" d="M178.72,202.86c-2.39-59.62,78.2-65.01,78.2-65.01S238.34,205.25,178.72,202.86z"/>
		<path class="st0" d="M106.06,204.67c2.39-59.62-78.2-65.01-78.2-65.01S46.44,207.06,106.06,204.67z"/>
		<path class="st0" d="M225.74,163.28l-47.02,39.58c-27.13,17.5-36.33,50.99-36.33,50.99v1.81c0,0-9.2-33.49-36.33-50.99
			l-45.71-41.39"/>
		<line class="st0" x1="142.39" y1="255.66" x2="142.39" y2="70.9"/>
	</g>
</g>
</svg>
