<svg version="1.1" id="Layer_1" xmlns="http://www.w3.org/2000/svg" xmlns:xlink="http://www.w3.org/1999/xlink" x="0px" y="0px"
	 viewBox="0 0 283.5 283.5" style="enable-background:new 0 0 283.5 283.5;" xml:space="preserve">
<style type="text/css">
	.st0{fill:none;stroke:#FFFFFF;stroke-width:10;stroke-linecap:round;stroke-linejoin:round;stroke-miterlimit:10;}
</style>
<g id="logoWhite">
	<g>
		<line class="st0" x1="27.4" y1="250.1" x2="256.1" y2="250.1"/>
		<line class="st0" x1="141.7" y1="250.1" x2="141.7" y2="26.6"/>
		<line class="st0" x1="50.9" y1="250.1" x2="50.9" y2="134.1"/>
		<line class="st0" x1="233.5" y1="250.1" x2="233.5" y2="134.1"/>
		<polygon class="st0" points="56.1,26.6 27.4,88 256.1,88 226.8,26.6 		"/>
		<path class="st0" d="M27.4,88v24.4c0,0,4,20.6,23.5,20.8c0,0,12.3,1,17.6-8.8c0,0,5.7,9.2,18,8.9s18.6-8.4,18.6-8.4
			s7.8,9.1,18.4,8.4s18.3-8.7,18.3-8.7s5.1,8.4,17.8,8.8s18.3-8.9,18.3-8.9s5.6,9,18.4,8.9c12.8-0.1,17.4-8.6,17.4-8.6
			s6.1,9,19.9,8.6s20.9-11.8,22.6-20.9V88"/>
		<polyline class="st0" points="68.5,124.4 68.5,88 87.7,26.6 		"/>
		<polyline class="st0" points="105.1,124.8 105.1,88 115.2,26.6 		"/>
		<polyline class="st0" points="177.8,124.4 177.8,88 167.7,26.6 		"/>
		<polyline class="st0" points="194.1,26.6 213.6,88 213.6,124.7 		"/>
		<line class="st0" x1="159.3" y1="168" x2="159.3" y2="195.6"/>
		<line class="st0" x1="123.6" y1="168" x2="123.6" y2="195.6"/>
	</g>
</g>
</svg>
