<svg xmlns="http://www.w3.org/2000/svg" xmlns:xlink="http://www.w3.org/1999/xlink" viewBox="0 0 283.46 283.46">
  <style>
    .st0{fill:none;stroke:#33234D;stroke-width:4;stroke-linecap:round;stroke-linejoin:round;stroke-miterlimit:10;}
  </style>
  <g id="reinsurance_icon4">
      <polyline class="st0" points="114.44,112.19 132.41,131.4 168.96,94.85"/>
      <circle class="st0" cx="142.03" cy="112.87" r="53.26"/>
      <polygon class="st0" points="127.5,42.18 142.03,29.59 156.55,42.18 173.98,36.37 182.29,52.85 201.09,54.26 202.49,72.91 219.22,81.64 213.23,98.96 225.66,113.35 213.3,127.6 219,145.07 202.27,154.32 201.09,172.67 182.73,173.63 173.85,190.36 156.09,184.07 142.03,196.65 127.5,184.29 109.83,189.92 101.18,173.19 82.52,172.52 81.34,153.73 64.61,144.77 70.54,127.08 57.81,112.87 70.46,98.74 64.91,80.83 81.19,72.61 82.97,53.52 101.1,52.63 110.13,35.75"/>
      <path class="st0" d="M96.35,173.02l-26.33,54.5c0,0-4.14,7.25,2.66,8.73l21.61-2.96l11.84,19.39c0,0,3.26,3.7,7.4-1.92l26.03-56.2"/>
      <path class="st0" d="M188.66,173.02l26.33,54.5c0,0,4.14,7.25-2.66,8.73l-21.61-2.96l-11.84,19.39c0,0-3.26,3.7-7.4-1.92l-26.03-56.2"/>
  </g>
</svg>
