<svg xmlns="http://www.w3.org/2000/svg" xmlns:xlink="http://www.w3.org/1999/xlink" viewBox="0 0 283.46 283.46">
  <style>
    .st0{fill:none;stroke:#33234D;stroke-width:4;stroke-linecap:round;stroke-linejoin:round;stroke-miterlimit:10;}
  </style>
  <g id="reinsurance_icon1">
      <polyline class="st0" points="109.63,105.58 96.05,48.56 52.69,48.56"/>
      <polyline class="st0" points="107.11,94.99 253.48,94.99 233.87,179.15 127.02,178.63 123.67,164.56"/>
      <circle class="st0" cx="142.51" cy="219.92" r="14.97"/>
      <circle class="st0" cx="204.45" cy="219.92" r="14.97"/>
      <path class="st0" d="M238,204.96H122.38h-0.52c-7.41,0-13.42-5.89-13.42-13.16s6.01-13.16,13.42-13.16h5.68"/>
      <line class="st0" x1="208.45" y1="94.99" x2="201.59" y2="178.99"/>
      <line class="st0" x1="153.07" y1="94.99" x2="159.93" y2="178.99"/>
      <line class="st0" x1="244.4" y1="133.94" x2="116.38" y2="133.94"/>
      <line class="st0" x1="122.89" y1="116.18" x2="72.31" y2="116.18"/>
      <line class="st0" x1="136.83" y1="154.37" x2="93.47" y2="154.37"/>
      <line class="st0" x1="83.15" y1="154.37" x2="67.66" y2="154.37"/>
      <line class="st0" x1="89.34" y1="136.82" x2="42.89" y2="136.82"/>
      <line class="st0" x1="56.82" y1="116.18" x2="29.98" y2="116.18"/>
  </g>
</svg>
