<svg xmlns="http://www.w3.org/2000/svg" xmlns:xlink="http://www.w3.org/1999/xlink" viewBox="0 0 283.46 283.46">
  <style>
    .st0{fill:none;stroke:#33234D;stroke-width:4;stroke-linecap:round;stroke-linejoin:round;stroke-miterlimit:10;}
  </style>
  <g id="reinsurance_icon3">
    <path class="st0" d="M143.17,29.98c0,0,17.6,57.19,100.31,36.96c0,0,29.92,130.23-100.31,186.54h-0.55C12.38,197.16,42.3,66.93,42.3,66.93c82.71,20.24,100.31-36.96,100.31-36.96"/>
    <path class="st0" d="M143.1,56.24c0,0,13.46,43.75,76.74,28.27c0,0,22.89,99.62-76.74,142.71h-0.42C43.05,184.13,65.94,84.51,65.94,84.51c63.28,15.48,76.74-28.27,76.74-28.27"/>
    <polyline class="st0" points="104.34,137.01 129.85,164.29 181.77,112.37"/>
    <line class="st0" x1="106.69" y1="183.65" x2="137.29" y2="183.65"/>
    <line class="st0" x1="151.57" y1="183.65" x2="173.56" y2="183.65"/>
    <line class="st0" x1="37.02" y1="222.68" x2="66.06" y2="222.68"/>
    <line class="st0" x1="51.54" y1="237.2" x2="51.54" y2="208.16"/>
    <line class="st0" x1="211.94" y1="49.89" x2="232.27" y2="49.89"/>
    <line class="st0" x1="222.11" y1="60.05" x2="222.11" y2="39.73"/>
  </g>
</svg>
